<svg width="94" height="49" viewBox="0 0 94 49" fill="none" xmlns="http://www.w3.org/2000/svg">
<path d="M0.96 8.144H7.68V11.336H0.96V8.144ZM2.832 2.84H6.024V18.944H2.832V2.84ZM0.504 19.088C1.4 18.832 2.48 18.488 3.744 18.056C5.024 17.608 6.312 17.16 7.608 16.712L8.256 19.784C7.136 20.28 5.992 20.768 4.824 21.248C3.672 21.712 2.592 22.144 1.584 22.544L0.504 19.088ZM9.696 5.624H23.112V8.768H9.696V5.624ZM10.176 11H13.872V13.784H10.176V11ZM8.232 5.624H11.424V13.928C11.424 14.824 11.384 15.792 11.304 16.832C11.224 17.856 11.072 18.888 10.848 19.928C10.64 20.968 10.328 21.96 9.912 22.904C9.496 23.832 8.952 24.656 8.28 25.376C8.12 25.168 7.88 24.92 7.56 24.632C7.256 24.36 6.936 24.088 6.6 23.816C6.264 23.56 5.976 23.368 5.736 23.24C6.504 22.392 7.064 21.44 7.416 20.384C7.768 19.328 7.992 18.24 8.088 17.12C8.184 15.984 8.232 14.912 8.232 13.904V5.624ZM12.672 11H15.504C15.504 11 15.504 11.136 15.504 11.408C15.504 11.68 15.496 11.904 15.48 12.08C15.464 13.84 15.432 15.288 15.384 16.424C15.352 17.56 15.288 18.44 15.192 19.064C15.112 19.688 14.984 20.12 14.808 20.36C14.6 20.648 14.384 20.864 14.16 21.008C13.952 21.136 13.704 21.232 13.416 21.296C13.176 21.36 12.88 21.4 12.528 21.416C12.192 21.432 11.824 21.44 11.424 21.44C11.392 20.992 11.312 20.504 11.184 19.976C11.056 19.432 10.896 18.976 10.704 18.608C10.944 18.64 11.152 18.664 11.328 18.68C11.504 18.68 11.648 18.68 11.76 18.68C12 18.68 12.192 18.576 12.336 18.368C12.416 18.24 12.472 17.944 12.504 17.48C12.552 17.016 12.584 16.304 12.6 15.344C12.632 14.384 12.656 13.096 12.672 11.48V11ZM15.456 2.456H18.72C18.688 3.928 18.688 5.424 18.72 6.944C18.752 8.464 18.816 9.952 18.912 11.408C19.008 12.848 19.12 14.192 19.248 15.44C19.392 16.688 19.544 17.792 19.704 18.752C19.88 19.696 20.064 20.44 20.256 20.984C20.448 21.512 20.64 21.776 20.832 21.776C20.96 21.776 21.072 21.496 21.168 20.936C21.264 20.376 21.32 19.52 21.336 18.368C21.656 18.736 22.04 19.096 22.488 19.448C22.936 19.784 23.352 20.04 23.736 20.216C23.608 21.48 23.408 22.456 23.136 23.144C22.88 23.848 22.528 24.328 22.08 24.584C21.648 24.856 21.088 24.992 20.4 24.992C19.696 24.992 19.08 24.672 18.552 24.032C18.04 23.408 17.6 22.544 17.232 21.44C16.88 20.32 16.584 19.032 16.344 17.576C16.12 16.104 15.944 14.528 15.816 12.848C15.688 11.152 15.6 9.424 15.552 7.664C15.504 5.888 15.472 4.152 15.456 2.456ZM18.504 3.584L20.904 2.24C21.304 2.672 21.696 3.16 22.08 3.704C22.48 4.232 22.768 4.704 22.944 5.12L20.376 6.584C20.232 6.168 19.976 5.68 19.608 5.12C19.24 4.544 18.872 4.032 18.504 3.584ZM20.136 11L23.256 11.552C22.536 14.688 21.472 17.424 20.064 19.76C18.672 22.096 16.904 23.976 14.76 25.4C14.6 25.192 14.376 24.936 14.088 24.632C13.8 24.344 13.496 24.056 13.176 23.768C12.872 23.48 12.6 23.248 12.36 23.072C14.456 21.888 16.136 20.272 17.4 18.224C18.664 16.16 19.576 13.752 20.136 11ZM43.656 2.384H47.424V7.472H43.656V2.384ZM43.704 8.552H47.352V25.304H43.704V8.552ZM34.512 5.36H56.784V8.768H34.512V5.36ZM36.696 10.856H52.536V14.264H40.224V22.448H36.696V10.856ZM51.24 10.856H54.888V18.824C54.888 19.624 54.784 20.272 54.576 20.768C54.384 21.264 54.008 21.648 53.448 21.92C52.888 22.176 52.256 22.336 51.552 22.4C50.848 22.464 50.048 22.496 49.152 22.496C49.088 21.984 48.936 21.4 48.696 20.744C48.472 20.088 48.24 19.528 48 19.064C48.32 19.08 48.664 19.096 49.032 19.112C49.416 19.128 49.76 19.136 50.064 19.136C50.384 19.136 50.6 19.136 50.712 19.136C50.904 19.136 51.04 19.112 51.12 19.064C51.2 19 51.24 18.896 51.24 18.752V10.856ZM74.016 11.768V20.816H70.68V14.984H67.848V11.768H74.016ZM74.016 19.448C74.432 20.2 75.008 20.744 75.744 21.08C76.48 21.416 77.408 21.608 78.528 21.656C79.28 21.688 80.176 21.712 81.216 21.728C82.256 21.728 83.344 21.72 84.48 21.704C85.632 21.688 86.76 21.656 87.864 21.608C88.984 21.56 89.992 21.496 90.888 21.416C90.76 21.672 90.624 22.008 90.48 22.424C90.336 22.824 90.2 23.232 90.072 23.648C89.96 24.08 89.872 24.464 89.808 24.8C89.024 24.848 88.136 24.88 87.144 24.896C86.168 24.928 85.16 24.944 84.12 24.944C83.08 24.96 82.072 24.96 81.096 24.944C80.12 24.928 79.248 24.904 78.48 24.872C77.12 24.808 75.968 24.592 75.024 24.224C74.08 23.856 73.256 23.216 72.552 22.304C72.04 22.752 71.504 23.192 70.944 23.624C70.4 24.072 69.792 24.552 69.12 25.064L67.536 21.584C68.08 21.28 68.656 20.952 69.264 20.6C69.872 20.232 70.448 19.848 70.992 19.448H74.016ZM68.16 5.216L70.56 2.96C71.056 3.28 71.576 3.656 72.12 4.088C72.664 4.504 73.176 4.928 73.656 5.36C74.152 5.792 74.544 6.2 74.832 6.584L72.24 9.104C71.984 8.72 71.624 8.304 71.16 7.856C70.712 7.392 70.224 6.928 69.696 6.464C69.168 6 68.656 5.584 68.16 5.216ZM77.928 7.496L80.16 5.672C80.848 5.912 81.608 6.2 82.44 6.536C83.288 6.872 84.104 7.224 84.888 7.592C85.672 7.944 86.336 8.272 86.88 8.576L84.48 10.616C84.016 10.312 83.4 9.976 82.632 9.608C81.88 9.24 81.088 8.872 80.256 8.504C79.424 8.12 78.648 7.784 77.928 7.496ZM75.816 8.504H87.936V10.976H79.08V20.936H75.816V8.504ZM86.304 8.504H89.616V18.056C89.616 18.728 89.544 19.256 89.4 19.64C89.256 20.024 88.968 20.328 88.536 20.552C88.136 20.776 87.664 20.912 87.12 20.96C86.576 21.008 85.968 21.032 85.296 21.032C85.232 20.616 85.12 20.152 84.96 19.64C84.8 19.128 84.632 18.688 84.456 18.32C84.728 18.336 85.016 18.344 85.32 18.344C85.64 18.344 85.856 18.344 85.968 18.344C86.096 18.344 86.184 18.32 86.232 18.272C86.28 18.208 86.304 18.12 86.304 18.008V8.504ZM76.152 3.176H87.288V5.768H76.152V3.176ZM77.64 11.816H87.384V14.192H77.64V11.816ZM77.64 15.08H87.384V17.552H77.64V15.08ZM81.12 9.704H84.216V20.84H81.12V9.704ZM86.016 3.176H86.808L87.48 3.008L89.52 4.664C88.944 5.208 88.304 5.768 87.6 6.344C86.912 6.904 86.192 7.44 85.44 7.952C84.688 8.448 83.944 8.888 83.208 9.272C83.016 8.984 82.744 8.648 82.392 8.264C82.04 7.88 81.744 7.576 81.504 7.352C82.08 7.048 82.656 6.688 83.232 6.272C83.824 5.84 84.368 5.408 84.864 4.976C85.36 4.528 85.744 4.128 86.016 3.776V3.176Z" fill="#475259"/>
<path d="M0.568182 36.7451V34.7167H10.125V36.7451H6.5625V46.353H4.13068V36.7451H0.568182ZM21.8608 40.5348C21.8608 41.8038 21.6203 42.8833 21.1392 43.7735C20.6619 44.6636 20.0104 45.3436 19.1847 45.8133C18.3627 46.2792 17.4384 46.5121 16.4119 46.5121C15.3778 46.5121 14.4498 46.2773 13.6278 45.8076C12.8059 45.3379 12.1563 44.658 11.679 43.7678C11.2017 42.8776 10.9631 41.8 10.9631 40.5348C10.9631 39.2659 11.2017 38.1864 11.679 37.2962C12.1563 36.4061 12.8059 35.728 13.6278 35.2621C14.4498 34.7924 15.3778 34.5576 16.4119 34.5576C17.4384 34.5576 18.3627 34.7924 19.1847 35.2621C20.0104 35.728 20.6619 36.4061 21.1392 37.2962C21.6203 38.1864 21.8608 39.2659 21.8608 40.5348ZM19.3665 40.5348C19.3665 39.7129 19.2434 39.0197 18.9972 38.4553C18.7547 37.8909 18.4119 37.4629 17.9688 37.1712C17.5256 36.8795 17.0066 36.7337 16.4119 36.7337C15.8172 36.7337 15.2983 36.8795 14.8551 37.1712C14.4119 37.4629 14.0672 37.8909 13.821 38.4553C13.5786 39.0197 13.4574 39.7129 13.4574 40.5348C13.4574 41.3568 13.5786 42.05 13.821 42.6144C14.0672 43.1788 14.4119 43.6068 14.8551 43.8985C15.2983 44.1901 15.8172 44.336 16.4119 44.336C17.0066 44.336 17.5256 44.1901 17.9688 43.8985C18.4119 43.6068 18.7547 43.1788 18.9972 42.6144C19.2434 42.05 19.3665 41.3568 19.3665 40.5348ZM25.8651 46.353L22.5355 34.7167H25.223L27.1491 42.8019H27.2457L29.3707 34.7167H31.6719L33.7912 42.8189H33.8935L35.8196 34.7167H38.5071L35.1776 46.353H32.7798L30.5639 38.7451H30.473L28.2628 46.353H25.8651ZM49.5568 34.7167V46.353H47.4318L42.3693 39.0292H42.2841V46.353H39.8239V34.7167H41.983L47.0057 42.0348H47.108V34.7167H49.5568Z" fill="#5AB4C5"/>
<path d="M55.2784 46.1765V34.5401H59.4261C60.3314 34.5401 61.0814 34.7049 61.6761 35.0345C62.2708 35.364 62.7159 35.8148 63.0114 36.3867C63.3068 36.9549 63.4545 37.5951 63.4545 38.3072C63.4545 39.0231 63.3049 39.667 63.0057 40.239C62.7102 40.8072 62.2633 41.258 61.6648 41.5913C61.0701 41.9208 60.322 42.0856 59.4205 42.0856H56.5682V40.597H59.2614C59.8333 40.597 60.2973 40.4985 60.6534 40.3015C61.0095 40.1008 61.2708 39.828 61.4375 39.4833C61.6042 39.1386 61.6875 38.7466 61.6875 38.3072C61.6875 37.8678 61.6042 37.4777 61.4375 37.1367C61.2708 36.7958 61.0076 36.5288 60.6477 36.3356C60.2917 36.1424 59.822 36.0458 59.2386 36.0458H57.0341V46.1765H55.2784ZM65.2614 46.1765H63.3977L67.5852 34.5401H69.6136L73.8011 46.1765H71.9375L68.6477 36.6538H68.5568L65.2614 46.1765ZM65.5739 41.6197H71.6193V43.097H65.5739V41.6197ZM81.7344 37.597C81.6738 37.0591 81.4238 36.6424 80.9844 36.347C80.545 36.0477 79.992 35.8981 79.3253 35.8981C78.848 35.8981 78.4351 35.9739 78.0866 36.1254C77.7382 36.2731 77.4673 36.4776 77.2741 36.739C77.0848 36.9966 76.9901 37.2901 76.9901 37.6197C76.9901 37.8962 77.0545 38.1348 77.1832 38.3356C77.3158 38.5364 77.4882 38.7049 77.7003 38.8413C77.9162 38.9739 78.1473 39.0856 78.3935 39.1765C78.6397 39.2636 78.8764 39.3356 79.1037 39.3924L80.2401 39.6879C80.6113 39.7788 80.992 39.9019 81.3821 40.0572C81.7723 40.2125 82.134 40.417 82.4673 40.6708C82.8007 40.9246 83.0696 41.239 83.2741 41.614C83.4825 41.989 83.5866 42.4379 83.5866 42.9606C83.5866 43.6197 83.4162 44.2049 83.0753 44.7163C82.7382 45.2277 82.2476 45.6311 81.6037 45.9265C80.9635 46.222 80.1889 46.3697 79.2798 46.3697C78.4086 46.3697 77.6548 46.2314 77.0185 45.9549C76.3821 45.6784 75.884 45.2864 75.5241 44.7788C75.1643 44.2674 74.9654 43.6614 74.9276 42.9606H76.6889C76.723 43.3811 76.8594 43.7314 77.098 44.0117C77.3404 44.2883 77.6491 44.4947 78.0241 44.6311C78.4029 44.7636 78.8177 44.8299 79.2685 44.8299C79.7647 44.8299 80.206 44.7523 80.5923 44.597C80.9825 44.4379 81.2893 44.2182 81.5128 43.9379C81.7363 43.6538 81.848 43.3223 81.848 42.9436C81.848 42.5989 81.7495 42.3167 81.5526 42.097C81.3594 41.8773 81.0961 41.6955 80.7628 41.5515C80.4332 41.4076 80.0601 41.2807 79.6435 41.1708L78.2685 40.7958C77.3366 40.542 76.598 40.1689 76.0526 39.6765C75.5109 39.1841 75.2401 38.5326 75.2401 37.722C75.2401 37.0515 75.4219 36.4663 75.7855 35.9663C76.1491 35.4663 76.6416 35.078 77.2628 34.8015C77.884 34.5212 78.5848 34.3811 79.3651 34.3811C80.1529 34.3811 80.848 34.5193 81.4503 34.7958C82.0563 35.0723 82.5336 35.453 82.8821 35.9379C83.2306 36.4189 83.4124 36.972 83.4276 37.597H81.7344ZM92.0312 37.597C91.9706 37.0591 91.7206 36.6424 91.2812 36.347C90.8419 36.0477 90.2888 35.8981 89.6222 35.8981C89.1449 35.8981 88.732 35.9739 88.3835 36.1254C88.035 36.2731 87.7642 36.4776 87.571 36.739C87.3816 36.9966 87.2869 37.2901 87.2869 37.6197C87.2869 37.8962 87.3513 38.1348 87.4801 38.3356C87.6127 38.5364 87.785 38.7049 87.9972 38.8413C88.2131 38.9739 88.4441 39.0856 88.6903 39.1765C88.9366 39.2636 89.1733 39.3356 89.4006 39.3924L90.5369 39.6879C90.9081 39.7788 91.2888 39.9019 91.679 40.0572C92.0691 40.2125 92.4309 40.417 92.7642 40.6708C93.0975 40.9246 93.3665 41.239 93.571 41.614C93.7794 41.989 93.8835 42.4379 93.8835 42.9606C93.8835 43.6197 93.7131 44.2049 93.3722 44.7163C93.035 45.2277 92.5445 45.6311 91.9006 45.9265C91.2604 46.222 90.4858 46.3697 89.5767 46.3697C88.7055 46.3697 87.9517 46.2314 87.3153 45.9549C86.679 45.6784 86.1809 45.2864 85.821 44.7788C85.4612 44.2674 85.2623 43.6614 85.2244 42.9606H86.9858C87.0199 43.3811 87.1563 43.7314 87.3949 44.0117C87.6373 44.2883 87.946 44.4947 88.321 44.6311C88.6998 44.7636 89.1146 44.8299 89.5653 44.8299C90.0616 44.8299 90.5028 44.7523 90.8892 44.597C91.2794 44.4379 91.5862 44.2182 91.8097 43.9379C92.0331 43.6538 92.1449 43.3223 92.1449 42.9436C92.1449 42.5989 92.0464 42.3167 91.8494 42.097C91.6563 41.8773 91.393 41.6955 91.0597 41.5515C90.7301 41.4076 90.357 41.2807 89.9403 41.1708L88.5653 40.7958C87.6335 40.542 86.8949 40.1689 86.3494 39.6765C85.8078 39.1841 85.5369 38.5326 85.5369 37.722C85.5369 37.0515 85.7188 36.4663 86.0824 35.9663C86.446 35.4663 86.9384 35.078 87.5597 34.8015C88.1809 34.5212 88.8816 34.3811 89.6619 34.3811C90.4498 34.3811 91.1449 34.5193 91.7472 34.7958C92.3532 35.0723 92.8305 35.453 93.179 35.9379C93.5275 36.4189 93.7093 36.972 93.7244 37.597H92.0312Z" fill="#475259"/>
</svg>
